# xmcd
#
# Track frame offsets: 
#        150
#        13473
#        26665
#        40008
#        53200
#        67810
#        85771
#        99431
#        108891
#        121605
#        134693
#        145940
#        157984
#        172060
#        190038
#
# Disc length: 2679 seconds
#
# Revision: 1
# Processed by: cddbd v1.5.1PL0 Copyright (c) Steve Scherf et al.
# Submitted via: ExactAudioCopy v0.95a5
#
DISCID=c10a750f
DTITLE=Worried Man Skiffle Group - Ein Spass am Wörthersee
DYEAR=1900
DGENRE=Country
TTITLE0=I bin a Wunder
TTITLE1=Oberstleutnant
TTITLE2=Trottel, kannst mi hassn
TTITLE3=Wandern duch den Wienerwald
TTITLE4=I bin da grösste
TTITLE5=Ohne Leder
TTITLE6=Mami
TTITLE7=I bin a Wunda
TTITLE8=Schnucki
TTITLE9=I wü, oba i trau mi net
TTITLE10=Hau die zuwa altes Haus
TTITLE11=Der Mensch is a Sau
TTITLE12=Da schensde Maun von Wien
TTITLE13=Zeitschriftenannoncen
TTITLE14=Bluat mit Bierfam fian Vampir
EXTD=
EXTT0=
EXTT1=
EXTT2=
EXTT3=
EXTT4=
EXTT5=
EXTT6=
EXTT7=
EXTT8=
EXTT9=
EXTT10=
EXTT11=
EXTT12=
EXTT13=
EXTT14=
PLAYORDER=
